HIERARCHY
ROOT joint_0
{
	OFFSET 0.000000 0.000000 0.000000
	CHANNELS 6 Xposition Yposition Zposition Zrotation Yrotation Xrotation 
	JOINT joint_1
	{
		OFFSET 1.363060 -1.794630 0.839290
		CHANNELS 3 Zrotation Yrotation Xrotation
		JOINT joint_2
		{
			OFFSET 2.448110 -6.726130 0.000000
			CHANNELS 3 Zrotation Yrotation Xrotation
			JOINT joint_3
			{
				OFFSET 2.562200 -7.039590 0.000000
				CHANNELS 3 Zrotation Yrotation Xrotation
				JOINT joint_4
				{
					OFFSET 0.157640 -0.433110 2.322550
					CHANNELS 3 Zrotation Yrotation Xrotation
					End Site
					{
						OFFSET 0.000000 0.000000 0.000000
					}
				}
			}
		}
	}
	JOINT joint_5
	{
		OFFSET -1.305520 -1.794630 0.839290
		CHANNELS 3 Zrotation Yrotation Xrotation
		JOINT joint_6
		{
			OFFSET -2.542530 -6.985550 0.000000
			CHANNELS 3 Zrotation Yrotation Xrotation
			JOINT joint_7
			{
				OFFSET -2.568260 -7.056230 0.000000
				CHANNELS 3 Zrotation Yrotation Xrotation
				JOINT joint_8
				{
					OFFSET -0.164730 -0.452590 2.363150
					CHANNELS 3 Zrotation Yrotation Xrotation
					End Site
					{
						OFFSET 0.000000 0.000000 0.000000
					}
				}
			}
		}
	}
	JOINT joint_9
	{
		OFFSET 0.028270 2.035590 -0.193380
		CHANNELS 3 Zrotation Yrotation Xrotation
		JOINT joint_10
		{
			OFFSET 0.056720 2.048850 -0.042750
			CHANNELS 3 Zrotation Yrotation Xrotation
			JOINT joint_11
			{
				OFFSET -0.054170 1.746240 0.172020
				CHANNELS 3 Zrotation Yrotation Xrotation
				JOINT joint_12
				{
					OFFSET 0.104070 1.761360 -0.123970
					CHANNELS 3 Zrotation Yrotation Xrotation
					End Site
					{
						OFFSET 0.000000 0.000000 0.000000
					}
				}
			}
			JOINT joint_13
			{
				OFFSET 3.362410 1.200890 -0.311210
				CHANNELS 3 Zrotation Yrotation Xrotation
				JOINT joint_14
				{
					OFFSET 4.983000 -0.000000 -0.000000
					CHANNELS 3 Zrotation Yrotation Xrotation
					JOINT joint_15
					{
						OFFSET 3.483560 -0.000000 -0.000000
						CHANNELS 3 Zrotation Yrotation Xrotation
						JOINT joint_16
						{
							OFFSET 0.000000 0.000000 0.000000
							CHANNELS 3 Zrotation Yrotation Xrotation
							End Site
							{
								OFFSET 0.000000 0.000000 0.000000
							}
						}
					}
				}
			}
			JOINT joint_17
			{
				OFFSET -3.136600 1.374050 -0.404650
				CHANNELS 3 Zrotation Yrotation Xrotation
				JOINT joint_18
				{
					OFFSET -5.241900 -0.000000 -0.000000
					CHANNELS 3 Zrotation Yrotation Xrotation
					JOINT joint_19
					{
						OFFSET -3.444170 -0.000000 -0.000000
						CHANNELS 3 Zrotation Yrotation Xrotation
						JOINT joint_20
						{
							OFFSET 0.000000 0.000000 0.000000
							CHANNELS 3 Zrotation Yrotation Xrotation
							End Site
							{
								OFFSET 0.000000 0.000000 0.000000
							}
						}
					}
				}
			}
		}
	}
}
MOTION
Frames: 8
Frame Time: 0.031667
0.383414 16.863363 -1.810240 -1.405944 0.763194 0.967095 -35.124535 -51.566692 25.361474 -0.694819 15.905783 -35.516495 -22.869905 16.635252 -17.859256 -0.847584 -1.798311 3.037488 54.319610 43.164842 -20.343191 -5.072375 -22.311467 -7.232593 33.020741 4.484648 23.576278 -0.656860 4.283115 -9.477758 -9.325334 -3.617783 -31.259341 -17.295284 7.829215 27.317113 6.414120 -8.382492 38.910983 -7.092612 -14.990952 18.914182 75.761681 -7.860767 -65.416335 -153.131704 -86.461782 171.038843 -28.322430 8.268089 16.264357 -7.972341 -0.159418 -0.037712 -16.024312 -5.034796 -62.593909 -8.007067 77.466838 7.594640 -5.180673 10.553269 -41.374598 8.805656 0.194792 -0.295725 
0.383318 16.859610 -1.817252 -1.379972 0.747692 0.969901 -48.676477 -63.467593 15.720223 4.279087 20.430901 -7.598916 -122.625979 6.983656 -10.131350 2.294122 -3.363770 -2.741355 41.063347 62.271429 35.607784 5.851980 -48.774033 -11.411591 -62.855642 -8.338558 57.131582 -1.371197 8.072800 -20.298663 40.243126 -15.140987 -4.825413 -30.185218 -10.170100 31.398137 11.007308 -9.990284 44.433942 -8.259961 -14.415941 26.956569 -169.679825 -18.694542 142.158288 -158.993600 -37.661644 172.678631 -23.918235 5.363806 -22.185568 -7.980767 -0.158627 -0.164812 -6.851891 33.737603 -13.777325 138.160621 48.235201 150.484697 -18.301941 -13.782087 -32.460576 8.713370 0.064337 -0.447798 
0.359751 16.856756 -1.922252 -1.278687 2.231196 1.264987 -31.720467 -52.255633 14.019804 9.692891 24.034269 -9.054899 -74.928200 33.452627 -38.089585 5.077860 -3.450496 -4.920659 63.379784 71.452965 19.243488 -41.172367 -54.263578 30.368114 107.606140 6.983796 89.179437 -2.595732 6.091848 -13.711327 17.280128 -28.768145 27.768821 -3.296828 -18.139738 58.105369 12.655536 0.848404 40.978102 -9.499173 -13.687260 28.787663 -0.695740 -75.759912 22.222092 -177.984922 -51.882795 164.208849 24.672976 -10.002221 -14.207049 -7.844730 -0.020239 -0.070339 -31.157158 22.977450 -78.394323 87.399253 45.662842 152.037219 -7.377959 0.706540 -90.176652 8.763522 0.091273 -0.586276 
0.356616 16.846096 -1.948889 -0.875224 1.924792 0.723241 -87.364424 -28.280881 -13.343635 -5.733147 -40.139850 21.526092 -95.375730 -0.515967 -56.560575 3.895538 -0.110383 7.774923 70.493617 55.416228 51.222017 -15.874581 -0.058407 -31.636965 37.160546 12.997642 -44.605486 -2.982241 -1.315252 8.275125 54.743652 -25.902118 -31.287044 0.620325 -4.257392 28.996028 22.093922 -12.336922 51.732659 -10.721994 -14.476555 29.333900 113.235814 -79.349026 38.245514 -172.589205 -83.239265 -171.388771 11.416236 -11.122754 143.531043 -7.418218 0.007438 -0.104315 -13.674721 45.183908 103.362199 96.586875 54.923896 117.440918 -38.529463 -39.726829 -84.032999 8.177132 0.218157 -0.817057 
0.352688 16.855104 -1.909324 -1.206381 1.764283 0.913657 -52.262155 -23.657941 -17.249322 15.987945 -34.421821 5.404538 24.121226 12.489960 40.011392 6.084365 -0.784613 8.756397 136.851364 63.833398 61.217708 -73.728306 -23.804225 -32.848770 -38.821962 2.816184 -161.006219 -5.108790 -4.847585 18.853311 12.448835 -26.096966 -38.444604 25.964529 6.944649 14.118649 13.510080 -22.340053 40.745958 -4.820159 -14.203348 39.889688 139.427124 -78.264085 93.608617 -154.520630 -78.458262 118.802892 5.875303 2.780429 137.489304 -7.514171 -0.146946 0.023617 -133.459820 86.166463 -171.008963 136.551230 66.767567 149.076599 -46.006119 -24.002594 3.352401 8.359749 0.402660 -0.883898 
0.353326 16.855556 -1.907733 -1.240121 1.724975 0.923689 -34.116672 -63.858867 21.038374 22.889892 38.417700 51.127702 20.483836 1.085338 -14.223445 10.895410 -5.453474 -4.768601 -53.073857 85.329275 -116.813046 -12.868712 -38.978254 21.955291 23.279569 -40.346511 -88.332637 -8.965212 -4.828703 18.385044 2.120243 1.265850 13.445704 -9.915015 -39.791634 9.323004 15.656467 3.742341 67.100058 6.245508 -11.756743 54.176367 -140.402383 -79.831394 158.823895 -69.653219 16.712167 70.975428 25.711564 -5.238116 -5.396807 -7.406600 -0.161487 0.360276 160.804281 84.268251 -139.787225 10.027669 -6.127682 77.880107 -50.022215 -28.149522 27.279215 8.563771 0.608998 -0.828379 
0.353497 16.856457 -1.906577 -1.280150 1.729442 0.936999 -101.609296 -55.170317 45.422606 4.387319 31.175818 28.116277 62.688460 18.178557 5.850018 10.013200 -3.774935 1.910463 -83.219771 81.718072 177.489135 -41.251522 -24.048394 29.144089 80.530191 -43.678701 86.991612 -8.589958 -7.555007 24.854445 -9.928838 3.453775 12.327188 8.631452 2.399780 50.300436 -14.718627 33.310802 126.367434 16.042781 -10.510511 57.612106 12.696348 -3.246079 -120.557579 -101.424329 -69.711884 116.056739 -11.206457 -27.657739 21.827268 -6.840048 -0.150306 0.228252 -42.990194 32.365651 145.062006 43.682046 29.819508 51.583947 -20.860082 -18.820518 -73.261620 7.733102 0.644812 -0.940961 
0.354524 16.854355 -1.908769 -1.262170 1.675628 0.897137 -97.339184 -55.599509 54.229270 -36.576746 -24.430014 -20.670820 31.175640 32.388579 -13.729507 6.212944 -3.720808 4.981769 -177.859168 70.079708 -18.628726 -40.300602 -34.353335 -14.567675 59.261686 0.759861 -30.518679 -5.052824 -4.868730 17.524764 29.239500 -38.060440 -45.344301 0.816176 -34.293198 18.008955 44.011379 5.475985 54.749468 21.326140 -14.335525 48.760249 -61.293674 8.793829 -28.418513 24.396572 -33.524758 -6.790950 -26.161346 -17.136634 60.399800 -6.301057 -0.217522 0.046855 80.436180 50.196809 7.522241 -21.329241 67.145117 -23.703811 -9.590558 -0.950820 36.954622 6.832348 0.556998 -1.075412 
